<?xml version="1.0" encoding="utf-8"?>
<!-- Generator: Adobe Illustrator 17.0.0, SVG Export Plug-In . SVG Version: 6.00 Build 0)  -->
<!DOCTYPE svg PUBLIC "-//W3C//DTD SVG 1.1//EN" "http://www.w3.org/Graphics/SVG/1.1/DTD/svg11.dtd">
<svg version="1.1" id="Layer_1" xmlns="http://www.w3.org/2000/svg" xmlns:xlink="http://www.w3.org/1999/xlink" x="0px" y="0px"
	 width="42px" height="59px" viewBox="0 0 42 59" enable-background="new 0 0 42 59" xml:space="preserve">
<path fill="#FFFFFF" d="M21.072,10.486c5.123,0,9.286,4.156,9.286,9.286s-4.163,9.293-9.286,9.293c-5.13,0-9.293-4.163-9.293-9.293
	S15.942,10.486,21.072,10.486z"/>
<path fill="#FF6B6B" d="M36.554,19.772c0,2.315-0.508,4.509-1.418,6.471L23.344,51.836c-0.565,1.228-1.376,1.997-2.272,1.997
	c-0.903,0-1.715-0.769-2.279-1.997L7.001,26.243c-0.903-1.962-1.411-4.156-1.411-6.471c0-8.552,6.929-15.482,15.482-15.482
	C29.617,4.29,36.554,11.219,36.554,19.772z M30.358,19.772c0-5.13-4.163-9.286-9.286-9.286c-5.13,0-9.293,4.156-9.293,9.286
	s4.163,9.293,9.293,9.293C26.195,29.065,30.358,24.902,30.358,19.772z"/>
</svg>
