<?xml version="1.0" encoding="utf-8"?>
<!-- Generator: Adobe Illustrator 17.0.0, SVG Export Plug-In . SVG Version: 6.00 Build 0)  -->
<!DOCTYPE svg PUBLIC "-//W3C//DTD SVG 1.1//EN" "http://www.w3.org/Graphics/SVG/1.1/DTD/svg11.dtd">
<svg version="1.1" id="Layer_1" xmlns="http://www.w3.org/2000/svg" xmlns:xlink="http://www.w3.org/1999/xlink" x="0px" y="0px"
	 width="242px" height="73.25px" viewBox="0 0 242 73.25" enable-background="new 0 0 242 73.25" xml:space="preserve">
<g>
	<path d="M2.66,41.99v21.041H0.999V18.242H15.58c4.717,0,8.347,1.02,10.89,3.061c2.542,2.041,3.814,5.02,3.814,8.936
		c0,2.523-0.805,4.814-2.415,6.876c-1.61,2.061-3.81,3.399-6.599,4.015c3.219,0.553,5.526,1.732,6.921,3.537
		c1.395,1.805,2.092,4.111,2.092,6.922v4.214c0,1.396,0.169,2.646,0.507,3.753c0.339,1.107,0.897,2.01,1.677,2.707v0.77h-1.63
		c-0.738-0.842-1.292-1.882-1.661-3.123c-0.369-1.24-0.554-2.63-0.554-4.168v-4.092c0-3.034-1.041-5.402-3.123-7.105
		c-2.082-1.702-5.05-2.553-8.905-2.553H2.66z M2.66,40.328h12.612c4.573,0,7.941-0.963,10.105-2.891s3.246-4.327,3.246-7.199
		c0-3.342-1.092-5.9-3.276-7.675c-2.185-1.773-5.44-2.661-9.767-2.661H2.66V40.328z"/>
	<path d="M44.311,19.257H42.65v-4.245h1.661V19.257z M44.311,63H42.65V29.716h1.661V63z"/>
	<path d="M53.693,46.327c0-5.271,1.107-9.459,3.322-12.566c2.215-3.106,5.291-4.66,9.229-4.66c2.584,0,4.824,0.579,6.722,1.738
		c1.896,1.159,3.409,2.743,4.537,4.753v-20.58h1.661v24.947c0,0.042,0,0.072,0,0.093s0.01,0.03,0.031,0.03v13.566
		c-0.021,0.041-0.031,0.072-0.031,0.092c0,0.021,0,0.042,0,0.062V63h-1.6l-0.062-5.137c-1.107,1.783-2.625,3.193-4.553,4.229
		c-1.928,1.035-4.184,1.554-6.768,1.554c-3.917,0-6.978-1.497-9.183-4.492c-2.205-2.994-3.307-7.055-3.307-12.182V46.327z
		 M55.416,46.973c0,4.595,0.907,8.244,2.723,10.951c1.814,2.707,4.486,4.061,8.013,4.061c2.892,0,5.291-0.65,7.198-1.953
		c1.907-1.302,3.292-3.04,4.153-5.214v-15.75c-0.82-2.358-2.118-4.332-3.892-5.922c-1.774-1.589-4.24-2.384-7.398-2.384
		c-3.527,0-6.209,1.441-8.044,4.322s-2.753,6.629-2.753,11.243V46.973z"/>
	<path d="M101.374,63.646c-3.917,0-7.224-1.518-9.92-4.553c-2.697-3.035-4.045-6.86-4.045-11.475V45.65
		c0-4.818,1.338-8.782,4.014-11.89c2.677-3.106,6.045-4.66,10.105-4.66c3.691,0,6.634,1.215,8.829,3.646
		c2.194,2.43,3.292,5.748,3.292,9.951v2.553H89.069v0.4v1.969c0,4.061,1.148,7.471,3.445,10.229c2.296,2.758,5.25,4.137,8.859,4.137
		c1.989,0,3.901-0.369,5.737-1.107s3.327-1.723,4.476-2.953l0.892,1.293c-1.169,1.291-2.676,2.353-4.522,3.184
		C106.111,63.23,103.917,63.646,101.374,63.646z M101.528,30.762c-3.445,0-6.271,1.195-8.475,3.584
		c-2.205,2.389-3.451,5.409-3.738,9.059l0.092,0.186h22.579v-1.016c0-3.425-0.934-6.25-2.799-8.475
		C107.321,31.875,104.768,30.762,101.528,30.762z"/>
	<path d="M148.993,52.449c0-2.564-1.051-4.63-3.153-6.199c-2.102-1.568-5.686-3.184-10.751-4.845
		c-5.045-1.538-8.762-3.169-11.151-4.892s-3.583-4.275-3.583-7.659c0-3.363,1.4-6.085,4.199-8.167
		c2.8-2.082,6.353-3.123,10.659-3.123c4.471,0,8.064,1.149,10.782,3.445c2.717,2.297,4.034,5.507,3.953,9.629l-0.062,0.185h-1.415
		c0-3.343-1.23-6.11-3.691-8.306c-2.461-2.194-5.65-3.291-9.567-3.291c-4.041,0-7.25,0.948-9.628,2.845
		c-2.379,1.897-3.568,4.138-3.568,6.722s0.958,4.682,2.876,6.291c1.917,1.609,5.491,3.184,10.72,4.722
		c5.086,1.6,8.87,3.261,11.351,4.983c2.481,1.723,3.722,4.256,3.722,7.598c0,3.404-1.466,6.133-4.399,8.184
		c-2.933,2.051-6.552,3.076-10.859,3.076c-4.491,0-8.357-1.051-11.597-3.153c-3.241-2.103-4.81-5.409-4.707-9.921l0.062-0.185h1.384
		c0,4.061,1.497,7.009,4.491,8.844c2.994,1.836,6.449,2.753,10.367,2.753c3.917,0,7.157-0.907,9.721-2.722
		C147.711,57.447,148.993,55.176,148.993,52.449z"/>
	<path d="M183.846,40.975h-22.025V63h-1.661V18.211h26.824v1.661h-25.163v19.38h22.025V40.975z"/>
</g>
<path fill="#FF6B6B" d="M219.026,1.792c-12.118,0-21.94,9.822-21.94,21.94c0,3.274,0.72,6.385,2.001,9.17l16.712,36.265
	c0.801,1.744,1.95,2.832,3.227,2.832c1.277,0,2.425-1.089,3.227-2.828l16.712-36.27c1.286-2.785,2.001-5.896,2.001-9.17
	C240.966,11.613,231.144,1.792,219.026,1.792z M219.026,36.896c-7.268,0-13.164-5.896-13.164-13.164s5.896-13.164,13.164-13.164
	s13.164,5.896,13.164,13.164S226.294,36.896,219.026,36.896z"/>
<g>
</g>
<g>
</g>
<g>
</g>
<g>
</g>
<g>
</g>
<g>
</g>
<g>
</g>
<g>
</g>
<g>
</g>
<g>
</g>
<g>
</g>
<g>
</g>
<g>
</g>
<g>
</g>
<g>
</g>
</svg>
